<?xml version="1.0" encoding="UTF-8"?>
<svg id="Layer_2" xmlns="http://www.w3.org/2000/svg" version="1.1" viewBox="0 0 180 216">
  <!-- Generator: Adobe Illustrator 29.6.1, SVG Export Plug-In . SVG Version: 2.1.1 Build 9)  -->
  <defs>
    <style>
      .st0 {
        fill: #90b1e0;
      }

      .st1 {
        fill: #cddef9;
      }

      .st2 {
        fill: #fff;
      }

      .st3 {
        fill: #f3f7ff;
      }

      .st4 {
        fill: #19212d;
      }
    </style>
  </defs>
  <rect class="st4" x="94.5" y="63" width="9" height="9"/>
  <rect class="st4" x="85.5" y="63" width="9" height="9"/>
  <rect class="st4" x="103.5" y="63" width="9" height="9"/>
  <rect class="st4" x="76.5" y="72" width="9" height="9"/>
  <rect class="st4" x="67.5" y="72" width="9" height="9"/>
  <rect class="st4" x="58.5" y="81" width="9" height="9"/>
  <rect class="st4" x="40.5" y="117" width="9" height="9"/>
  <rect class="st4" x="49.5" y="117" width="9" height="9"/>
  <rect class="st4" x="112.5" y="72" width="9" height="9"/>
  <rect class="st4" x="121.5" y="81" width="9" height="9"/>
  <rect class="st4" x="58.5" y="126" width="9" height="9"/>
  <rect class="st4" x="31.5" y="99" width="9" height="9"/>
  <rect class="st4" x="31.5" y="108" width="9" height="9"/>
  <rect class="st4" x="49.5" y="90" width="9" height="9"/>
  <rect class="st4" x="40.5" y="90" width="9" height="9"/>
  <rect class="st4" x="67.5" y="126" width="9" height="9"/>
  <rect class="st4" x="76.5" y="135" width="9" height="9"/>
  <rect class="st4" x="85.5" y="135" width="9" height="9"/>
  <rect class="st4" x="94.5" y="135" width="9" height="9"/>
  <rect class="st4" x="103.5" y="135" width="9" height="9"/>
  <rect class="st4" x="112.5" y="126" width="9" height="9"/>
  <rect class="st4" x="121.5" y="117" width="9" height="9"/>
  <rect class="st4" x="130.5" y="117" width="9" height="9"/>
  <rect class="st4" x="130.5" y="90" width="9" height="9"/>
  <rect class="st4" x="139.5" y="90" width="9" height="9"/>
  <rect class="st4" x="148.5" y="99" width="9" height="9"/>
  <rect class="st4" x="139.5" y="108" width="9" height="9"/>
  <rect class="st1" x="49.5" y="99" width="9" height="9"/>
  <rect class="st0" x="40.5" y="99" width="9" height="9"/>
  <rect class="st3" x="67.5" y="90" width="9" height="9"/>
  <rect class="st1" x="58.5" y="90" width="9" height="9"/>
  <rect class="st3" x="76.5" y="81" width="9" height="9"/>
  <rect class="st1" x="67.5" y="81" width="9" height="9"/>
  <rect class="st3" x="94.5" y="72" width="9" height="9"/>
  <rect class="st3" x="85.5" y="72" width="9" height="9"/>
  <rect class="st3" x="94.5" y="81" width="9" height="9"/>
  <rect class="st3" x="85.5" y="81" width="9" height="9"/>
  <rect class="st3" x="85.5" y="90" width="9" height="9"/>
  <rect class="st3" x="76.5" y="90" width="9" height="9"/>
  <rect class="st3" x="67.5" y="99" width="9" height="9"/>
  <rect class="st3" x="58.5" y="99" width="9" height="9"/>
  <rect class="st3" x="49.5" y="108" width="9" height="9"/>
  <rect class="st1" x="40.5" y="108" width="9" height="9"/>
  <rect class="st1" x="67.5" y="117" width="9" height="9"/>
  <rect class="st0" x="58.5" y="117" width="9" height="9"/>
  <rect class="st3" x="67.5" y="108" width="9" height="9"/>
  <rect class="st3" x="58.5" y="108" width="9" height="9"/>
  <rect class="st3" x="85.5" y="99" width="9" height="9"/>
  <rect class="st3" x="76.5" y="99" width="9" height="9"/>
  <rect class="st3" x="85.5" y="117" width="9" height="9"/>
  <rect class="st3" x="76.5" y="117" width="9" height="9"/>
  <rect class="st3" x="85.5" y="108" width="9" height="9"/>
  <rect class="st3" x="76.5" y="108" width="9" height="9"/>
  <rect class="st2" x="103.5" y="99" width="9" height="9"/>
  <rect class="st3" x="94.5" y="99" width="9" height="9"/>
  <rect class="st3" x="103.5" y="90" width="9" height="9"/>
  <rect class="st2" x="94.5" y="90" width="9" height="9"/>
  <rect class="st3" x="112.5" y="99" width="9" height="9"/>
  <rect class="st3" x="112.5" y="90" width="9" height="9"/>
  <rect class="st3" x="103.5" y="81" width="9" height="9"/>
  <rect class="st3" x="103.5" y="72" width="9" height="9"/>
  <rect class="st3" x="121.5" y="99" width="9" height="9"/>
  <rect class="st3" x="121.5" y="90" width="9" height="9"/>
  <rect class="st3" x="94.5" y="117" width="9" height="9"/>
  <rect class="st3" x="94.5" y="108" width="9" height="9"/>
  <rect class="st3" x="103.5" y="117" width="9" height="9"/>
  <rect class="st3" x="103.5" y="108" width="9" height="9"/>
  <rect class="st3" x="112.5" y="117" width="9" height="9"/>
  <rect class="st3" x="112.5" y="108" width="9" height="9"/>
  <rect class="st3" x="130.5" y="99" width="9" height="9"/>
  <rect class="st3" x="139.5" y="99" width="9" height="9"/>
  <rect class="st3" x="121.5" y="108" width="9" height="9"/>
  <rect class="st3" x="130.5" y="108" width="9" height="9"/>
  <rect class="st3" x="112.5" y="81" width="9" height="9"/>
  <rect class="st3" x="85.5" y="126" width="9" height="9"/>
  <rect class="st1" x="76.5" y="126" width="9" height="9"/>
  <rect class="st3" x="94.5" y="126" width="9" height="9"/>
  <rect class="st3" x="103.5" y="126" width="9" height="9"/>
  <rect class="st1" x="103.5" y="90" width="9" height="9"/>
  <rect class="st1" x="112.5" y="99" width="9" height="9"/>
</svg>